HIERARCHY
ROOT Hips
{
     OFFSET 15.67300 93.92070 -3.97795
     CHANNELS 6 Xposition Yposition Zposition Zrotation Xrotation Yrotation
     JOINT Spine
     {
          OFFSET -0.00000 11.89050 -0.00000
          CHANNELS 3 Zrotation Xrotation Yrotation
          JOINT Spine1
          {
               OFFSET -0.00000 25.65740 0.12766
               CHANNELS 3 Zrotation Xrotation Yrotation
               JOINT HEad
               {
                    OFFSET -0.00000 8.73416 0.01134
                    CHANNELS 3 Zrotation Xrotation Yrotation
                    End Site
                    {
                         OFFSET -0.29000 12.77420 2.51395
                    }
               }
               JOINT LeftShoulder1
               {
                    OFFSET 8.99000 -0.36225 -0.22000
                    CHANNELS 3 Zrotation Xrotation Yrotation
                    JOINT LeftArm
                    {
                         OFFSET 10.28270 -0.00338 0.32212
                         CHANNELS 3 Zrotation Xrotation Yrotation
                         JOINT LeftForeArm
                         {
                              OFFSET 32.76690 0.09914 -1.42434
                              CHANNELS 3 Zrotation Xrotation Yrotation
                              JOINT LeftHand
                              {
                                   OFFSET 27.56430 0.08536 1.02216
                                   CHANNELS 3 Zrotation Xrotation Yrotation
                                   End Site
                                   {
                                        OFFSET 16.74430 -0.60000 1.50291
                                   }
                              }
                         }
                    }
               }
               JOINT RightShoulder
               {
                    OFFSET -8.99000 -0.36225 -0.22000
                    CHANNELS 3 Zrotation Xrotation Yrotation
                    JOINT RightArm
                    {
                         OFFSET -10.28270 -0.00338 0.32212
                         CHANNELS 3 Zrotation Xrotation Yrotation
                         JOINT RightForeArm
                         {
                              OFFSET -32.89710 0.09914 -1.42434
                              CHANNELS 3 Zrotation Xrotation Yrotation
                              JOINT RightHand
                              {
                                   OFFSET -27.49210 0.08536 1.02216
                                   CHANNELS 3 Zrotation Xrotation Yrotation
                                   End Site
                                   {
                                        OFFSET -16.63120 -0.60000 1.50291
                                   }
                              }
                         }
                    }
               }
          }
     }
     JOINT LeftUpLeg
     {
          OFFSET 8.94580 -8.66707 0.10165
          CHANNELS 3 Zrotation Xrotation Yrotation
          JOINT LeftLeg
          {
               OFFSET -0.00000 -44.42270 1.37270
               CHANNELS 3 Zrotation Xrotation Yrotation
               JOINT LeftFoot
               {
                    OFFSET -0.25355 -42.09240 -1.46059
                    CHANNELS 3 Zrotation Xrotation Yrotation
                    JOINT LeftToes
                    {
                         OFFSET -0.04000 -4.41509 8.49910
                         CHANNELS 3 Zrotation Xrotation Yrotation
                         End Site
                         {
                              OFFSET 0.08000 -0.04745 9.77979
                         }
                    }
               }
          }
     }
     JOINT RightUpLeg
     {
          OFFSET -8.94580 -8.66707 0.10165
          CHANNELS 3 Zrotation Xrotation Yrotation
          JOINT RightLeg
          {
               OFFSET 0.00000 -44.42270 1.37270
               CHANNELS 3 Zrotation Xrotation Yrotation
               JOINT RightFoot
               {
                    OFFSET 0.25355 -42.09240 -1.46059
                    CHANNELS 3 Zrotation Xrotation Yrotation
                    JOINT RightToes
                    {
                         OFFSET 0.04000 -4.41509 8.49910
                         CHANNELS 3 Zrotation Xrotation Yrotation
                         End Site
                         {
                              OFFSET -0.08000 -0.13745 9.77979
                         }
                    }
               }
          }
     }
}
MOTION
Frames: 14
Frame Time: 0.01667
15.67300 93.92070 -3.97795 -9.92225 -12.16810 -32.14550 -1.52573 13.37160 -2.51984 -1.95493 26.60300 -4.47153 1.96495 -13.87410 22.31480 -0.00000 0.00000 -0.00000 -121.56900 -63.67480 -105.83100 -31.57610 46.85570 -77.32880 17.25660 7.72567 -10.72010 6.74414 0.40479 0.79141 87.90790 3.59892 80.37390 6.29503 29.57180 94.25520 17.92890 11.84370 7.67839 26.57640 -6.99553 -21.30390 -29.72240 7.15008 72.41140 -5.40450 11.75540 0.82603 7.67835 -12.63730 -55.75590 -22.91520 8.53967 14.37910 36.64750 12.03950 -27.50700 -33.01330 -1.77015 1.62071 7.25981 -41.82160 14.20510 
15.59280 94.04620 -3.92476 -9.62507 -12.17150 -31.58320 -1.59232 13.29460 -2.47870 -1.95444 26.43000 -4.40764 1.68057 -13.90020 21.89930 -0.00000 0.00000 -0.00000 -121.78900 -63.12260 -105.87300 -31.96780 47.20390 -76.80340 17.51660 7.68737 -10.74400 6.47349 0.41296 0.93428 88.29200 3.56801 80.65890 6.06405 29.56680 94.40000 17.67670 11.83300 7.77758 26.42530 -7.40889 -20.68840 -29.87850 7.24211 72.47690 -5.59654 11.54850 0.84970 7.75262 -12.20450 -55.27480 -23.21490 8.92320 14.37150 36.77910 11.37260 -27.29190 -32.16400 -2.02122 1.49902 6.84239 -40.34750 14.01910 
15.54900 94.14050 -3.80770 -9.37631 -12.14280 -30.99280 -1.59828 13.19740 -2.35986 -1.89466 26.22140 -4.18648 1.51276 -13.93170 21.33260 -0.00000 0.00000 -0.00000 -122.31400 -62.38910 -106.07400 -32.95190 47.79310 -75.64850 17.85350 7.62058 -10.88670 6.28244 0.41194 0.97055 88.61900 3.48991 80.95750 5.74039 29.54170 94.60260 17.34760 11.81550 7.88923 26.29390 -7.84832 -20.15060 -30.03420 7.29698 72.56000 -6.09921 10.96770 0.90655 7.79986 -11.84010 -54.74930 -23.48610 9.35340 14.40140 36.92010 10.65160 -27.17270 -31.47440 -2.29387 1.38346 6.39799 -38.92560 13.61240 
15.53930 94.19080 -3.62006 -9.16176 -12.09260 -30.35000 -1.53485 13.07020 -2.16691 -1.80161 25.96140 -3.80392 1.49994 -13.95010 20.60550 -0.00000 0.00000 -0.00000 -121.76700 -61.41580 -105.30500 -33.88920 48.05270 -74.40790 18.11010 7.55831 -11.06520 6.28348 0.41049 0.95555 88.79510 3.27793 81.24980 5.37314 29.48760 94.79780 16.97670 11.79050 7.98515 26.15550 -8.32333 -19.71400 -30.15180 7.29225 72.69660 -6.83152 10.09820 0.97916 7.84776 -11.49000 -54.30220 -23.73760 9.82595 14.46400 37.07270 9.91099 -27.18950 -31.00250 -2.58244 1.27750 5.95719 -37.64920 12.98510 
15.56030 94.19160 -3.36369 -8.96075 -12.02580 -29.60910 -1.40595 12.92620 -1.94095 -1.68961 25.67720 -3.33937 1.64247 -13.99490 19.79080 -0.00000 0.00000 -0.00000 -118.96800 -60.15040 -102.73000 -33.93350 47.34060 -73.83960 18.13030 7.53940 -11.16960 6.36585 0.41486 0.97945 88.93260 2.97802 81.57790 4.98780 29.38830 94.89890 16.59540 11.75790 8.04213 25.98190 -8.86301 -19.37990 -30.20030 7.22157 72.91620 -7.65498 9.06915 1.04462 7.94184 -10.97810 -53.92260 -23.98060 10.33810 14.53480 37.24880 9.18210 -27.34020 -30.72860 -2.90837 1.17257 5.53192 -36.49870 12.19300 
15.65790 93.98520 -2.97334 -9.05931 -11.80300 -28.80230 -0.54410 12.70170 -1.79035 -1.37962 25.37560 -2.88079 1.89652 -14.12450 18.97520 -0.00000 0.00000 -0.00000 -113.69200 -58.44960 -98.36460 -32.65950 45.30250 -74.32780 17.83700 7.58458 -11.13850 6.32823 0.42649 1.10613 89.21410 2.69341 81.99140 4.58798 29.22800 94.82800 16.22210 11.72200 8.07308 25.88830 -10.13020 -18.97520 -30.27070 8.50216 73.32720 -9.14007 7.73569 1.16400 8.13562 -10.05130 -53.52340 -23.90760 10.68580 14.41440 37.54980 9.04040 -27.67070 -30.49420 -3.54667 0.98356 5.14474 -35.46160 11.35810 
15.78540 93.71220 -2.52283 -9.17897 -11.62640 -27.87940 0.31580 12.49640 -1.63571 -1.14050 25.13300 -2.45453 2.17105 -14.33760 18.17450 -0.00000 0.00000 -0.00000 -107.17700 -56.21560 -93.36870 -30.55350 42.24060 -75.43940 17.28490 7.68124 -10.99700 6.06359 0.44459 1.36314 89.72200 2.48333 82.50970 4.18611 28.99820 94.53120 15.86220 11.68970 8.12060 25.70130 -11.48570 -18.56310 -30.22850 9.90500 73.88700 -10.56540 6.49091 1.24954 8.43451 -8.63397 -53.05130 -23.85830 11.08660 14.27680 37.90690 9.00690 -28.14910 -30.33080 -4.25217 0.78080 4.83449 -34.63320 10.60390 
15.93900 93.39030 -2.01312 -9.32247 -11.51580 -26.87240 1.13675 12.30950 -1.45977 -0.88057 24.92150 -2.02726 2.37923 -14.55590 17.31550 -0.00000 0.00000 -0.00000 -101.01100 -53.59890 -89.05850 -28.47610 38.88210 -76.43920 16.63290 7.79523 -10.81700 5.63330 0.46751 1.73836 90.37480 2.34238 83.12250 3.82425 28.68540 93.97990 15.51720 11.66790 8.23172 25.42020 -12.84990 -18.04310 -30.03810 11.40690 74.62870 -11.78180 5.52838 1.30797 8.77922 -6.97355 -52.58990 -23.84030 11.58150 14.15360 38.28180 9.01196 -28.73800 -30.21390 -4.93350 0.58785 4.62563 -34.15040 9.96715 
16.11440 93.03030 -1.44168 -9.51643 -11.45060 -25.80730 1.95159 12.12460 -1.24713 -0.62059 24.72710 -1.55730 2.49319 -14.71360 16.29680 -0.00000 0.00000 -0.00000 -95.80780 -50.82940 -85.87770 -26.90510 35.70670 -76.97010 16.00630 7.90026 -10.66140 5.15843 0.49285 2.18995 91.04030 2.23494 83.82500 3.56436 28.26500 93.15680 15.20770 11.66330 8.44366 25.11450 -14.19740 -17.35530 -29.74600 13.00300 75.54940 -12.74740 4.90856 1.35509 9.15017 -5.21762 -52.25780 -23.80700 12.17630 14.07010 38.63450 9.01790 -29.38250 -30.09080 -5.54646 0.41497 4.50077 -34.01770 9.39934 
16.30540 92.65830 -0.81631 -9.73785 -11.41320 -24.67270 2.73078 11.93570 -0.99148 -0.36242 24.53620 -1.03288 2.52281 -14.80810 15.05240 -0.00000 0.00000 -0.00000 -91.43830 -48.03170 -83.66510 -25.86840 32.79410 -77.08800 15.40000 7.99528 -10.54780 4.68996 0.51824 2.68349 91.65150 2.10597 84.63300 3.45549 27.71340 92.05650 14.95250 11.68030 8.77717 24.83700 -15.48290 -16.51960 -29.46490 14.55260 76.54140 -13.61030 4.48769 1.40341 9.61802 -3.01671 -51.96520 -23.74560 12.86580 14.06170 38.93360 8.96883 -30.05380 -29.84080 -6.11313 0.25424 4.40572 -34.03010 8.84225 
16.51120 92.31120 -0.15140 -9.92505 -11.38680 -23.42900 3.40095 11.73910 -0.69602 -0.09280 24.31660 -0.46731 2.47001 -14.84410 13.56480 -0.00000 0.00000 -0.00000 -87.81110 -45.31780 -82.23850 -25.23310 30.23230 -77.01300 14.74030 8.09757 -10.42070 4.22389 0.54118 3.19537 92.17730 1.87401 85.54400 3.51183 27.02360 90.71110 14.73600 11.71490 9.21760 24.58740 -16.65150 -15.60110 -29.31330 15.85370 77.48560 -14.59220 4.07185 1.45847 10.22800 0.07506 -51.45550 -23.67450 13.63870 14.13890 39.15330 8.80298 -30.73800 -29.31940 -6.68308 0.09260 4.28258 -33.90130 8.26546 
16.73800 92.01770 0.54156 -10.02490 -11.35070 -22.02720 3.90466 11.52640 -0.37295 0.20053 24.02870 0.11058 2.34818 -14.81950 11.88000 -0.00000 0.00000 -0.00000 -85.11440 -42.88450 -81.56260 -24.94110 28.35480 -76.92930 14.00040 8.22114 -10.18560 3.74104 0.55777 3.68944 92.59660 1.46934 86.52020 3.71963 26.20690 89.20500 14.54090 11.75550 9.69538 24.31850 -17.66170 -14.64600 -29.34660 16.76600 78.33990 -15.67710 3.57840 1.50675 10.90600 3.92818 -50.68250 -23.61730 14.49260 14.28210 39.28460 8.45932 -31.41080 -28.46690 -7.26048 -0.06685 4.10602 -33.47290 7.66030 
16.98950 91.80040 1.25471 -9.97914 -11.31570 -20.41200 4.16782 11.30530 -0.04041 0.50446 23.66140 0.66205 2.21003 -14.75000 10.08140 -0.00000 0.00000 -0.00000 -83.60020 -40.93750 -81.65710 -25.07750 27.56630 -76.88420 13.26960 8.35524 -9.81509 3.21254 0.56248 4.10950 92.91500 0.87282 87.52090 4.07379 25.28800 87.64650 14.38390 11.79010 10.10370 23.92210 -18.41910 -13.61730 -29.50510 17.17160 79.01640 -16.44970 3.05557 1.51200 11.53650 7.64090 -50.06500 -23.64070 15.47730 14.50330 39.34050 7.82337 -32.05580 -27.37740 -7.74591 -0.19358 3.89189 -32.82100 7.00905 
17.25980 91.69860 1.97171 -9.69512 -11.33230 -18.51100 4.06280 11.10910 0.28320 0.77950 23.24070 1.15296 2.12033 -14.64570 8.18433 -0.00000 0.00000 -0.00000 -83.38510 -39.55140 -82.51720 -25.82360 28.10970 -76.76380 12.75790 8.46120 -9.41344 2.61611 0.55047 4.39326 93.16180 0.07381 88.51680 4.58020 24.31300 86.14540 14.29050 11.81080 10.35150 23.24620 -18.69720 -12.40480 -29.61600 16.81200 79.22980 -16.23070 2.68264 1.44065 12.05850 9.80614 -50.31280 -23.86500 16.70950 14.87650 39.33640 6.68388 -32.66950 -26.29440 -7.93507 -0.23863 3.66375 -32.17120 6.20396 
